<svg width="52" height="52" viewBox="0 0 52 52" fill="none" xmlns="http://www.w3.org/2000/svg">
<path d="M1.54166 22.3312L16.5809 7.26595L20.9782 11.6893C20.3538 13.9009 21.3685 16.3207 23.398 17.4916V31.9064C21.8369 32.7911 20.7961 34.4824 20.7961 36.4078C20.7961 37.788 21.3444 39.1116 22.3203 40.0875C23.2962 41.0634 24.6198 41.6117 26 41.6117C27.3802 41.6117 28.7038 41.0634 29.6797 40.0875C30.6556 39.1116 31.2039 37.788 31.2039 36.4078C31.2039 34.4824 30.1631 32.7911 28.602 31.9064V19.2609L33.988 24.699C33.8059 25.0893 33.8059 25.5316 33.8059 26C33.8059 27.3802 34.3541 28.7038 35.33 29.6797C36.306 30.6556 37.6296 31.2039 39.0098 31.2039C40.3899 31.2039 41.7136 30.6556 42.6895 29.6797C43.6654 28.7038 44.2137 27.3802 44.2137 26C44.2137 24.6198 43.6654 23.2962 42.6895 22.3203C41.7136 21.3444 40.3899 20.7961 39.0098 20.7961C38.5414 20.7961 38.0991 20.7961 37.7088 20.9782L31.0218 14.2912C31.3448 13.0861 31.2196 11.8047 30.6693 10.6849C30.119 9.56513 29.181 8.68312 28.0295 8.20265C26.9107 7.78634 25.7398 7.68226 24.699 7.96848L20.2757 3.57118L22.3312 1.54166C24.3608 -0.513885 27.6392 -0.513885 29.6688 1.54166L50.4583 22.3312C52.5139 24.3608 52.5139 27.6392 50.4583 29.6688L29.6688 50.4583C27.6392 52.5139 24.3608 52.5139 22.3312 50.4583L1.54166 29.6688C-0.513885 27.6392 -0.513885 24.3608 1.54166 22.3312Z" fill="#E44F26"/>
</svg>
