<svg width="52" height="52" viewBox="0 0 52 52" fill="none" xmlns="http://www.w3.org/2000/svg">
<path d="M0 0V52H52V0H0ZM28.2991 40.5544C28.2991 45.6151 25.3277 47.9254 20.9987 47.9254C17.0876 47.9254 14.8237 45.9067 13.663 43.4571L17.6447 41.054C18.4117 42.4116 19.1081 43.5611 20.7907 43.5611C22.3916 43.5611 23.413 42.9334 23.413 40.4857V23.8754H28.2991V40.5544ZM39.858 47.9254C35.3191 47.9254 32.383 45.7674 30.9549 42.9334L34.9366 40.6361C35.9821 42.3429 37.3509 43.6076 39.754 43.6076C41.7727 43.6076 43.0746 42.5973 43.0746 41.1933C43.0746 39.5219 41.7504 38.9294 39.5107 37.9433L38.2924 37.4214C34.7639 35.9246 32.4313 34.0321 32.4313 30.0504C32.4313 26.3826 35.2281 23.5969 39.5813 23.5969C42.692 23.5969 44.9206 24.6759 46.5233 27.508L42.7161 29.9464C41.8804 28.4496 40.9741 27.8571 39.5701 27.8571C38.1439 27.8571 37.2376 28.7634 37.2376 29.9464C37.2376 31.4099 38.1439 32.0004 40.2443 32.9179L41.4626 33.4397C45.6189 35.2151 47.9514 37.0389 47.9514 41.1227C47.9514 45.5111 44.4916 47.9236 39.8599 47.9236L39.858 47.9254Z" fill="#F5DE19"/>
</svg>
