<svg width="52" height="52" viewBox="0 0 52 52" fill="none" xmlns="http://www.w3.org/2000/svg">
<path d="M25.0715 6.99688e-05C24.6902 6.99688e-05 24.3998 0.00223663 24.2958 0.0152366C24.0332 0.0415007 23.7703 0.0653351 23.5071 0.0867365C16.125 0.749736 9.20655 4.73423 4.82537 10.8594C2.40244 14.221 0.827325 18.1181 0.23401 22.2192C0.0260011 23.647 0 24.0695 0 26.0044C0 27.9392 0.0260011 28.3639 0.23401 29.7917C1.64674 39.5547 8.59769 47.7577 18.0209 50.7975C19.7088 51.3392 21.4877 51.7118 23.5115 51.935C24.298 52.0217 27.7042 52.0217 28.4929 51.935C31.9835 51.5493 34.9433 50.6848 37.8597 49.1963C38.3083 48.9667 38.3949 48.906 38.3343 48.854C38.2909 48.8258 36.3842 46.2692 34.0983 43.1773L29.9402 37.5614L24.7314 29.8524C22.9984 27.2731 21.2491 24.7048 19.4835 22.1477C19.464 22.1434 19.4445 25.5689 19.4336 29.7527C19.4185 37.076 19.412 37.3685 19.321 37.5419C19.2326 37.7449 19.0742 37.9095 18.8746 38.0055C18.7121 38.0857 18.5713 38.1008 17.8021 38.1008H16.9202L16.6862 37.9535C16.5415 37.8629 16.424 37.7349 16.346 37.583L16.2377 37.3534L16.2507 27.1635L16.2658 16.9694L16.4219 16.77C16.5284 16.6455 16.656 16.5406 16.7989 16.4602C17.0069 16.3584 17.0892 16.3497 17.9689 16.3497C19.0046 16.3497 19.178 16.3887 19.4466 16.6834C21.5552 19.8212 23.6462 22.9709 25.7194 26.1322C29.1372 31.3119 32.5571 36.4902 35.979 41.6672L40.0958 47.905L40.3038 47.7685C42.2859 46.4515 44.0829 44.8754 45.6471 43.082C48.9227 39.3327 51.0473 34.7181 51.766 29.7917C51.974 28.3617 52 27.9414 52 26.0044C52 24.0695 51.974 23.647 51.766 22.2192C50.3533 12.4562 43.4045 4.25323 33.9812 1.2134C32.2194 0.653283 30.4052 0.273611 28.5665 0.0802365C27.4031 0.0251736 26.2385 -0.0015565 25.0737 6.99688e-05H25.0715ZM33.8881 15.6369C34.6399 15.6369 34.7721 15.6477 34.9411 15.7387C35.0622 15.7998 35.1699 15.8843 35.258 15.9873C35.3462 16.0904 35.413 16.2098 35.4546 16.3389C35.4936 16.4689 35.5045 19.2964 35.4936 25.6642L35.4806 34.8032L33.8686 32.3332L32.2522 29.8632V23.2202C32.2522 18.9259 32.2738 16.51 32.302 16.3952C32.3383 16.2597 32.4018 16.133 32.4886 16.0227C32.5754 15.9125 32.6837 15.821 32.8069 15.7539C33.0149 15.6455 33.0885 15.6369 33.8902 15.6369H33.8881Z" fill="#000"/>
</svg>
