<svg width="58" height="52" viewBox="0 0 58 52" fill="none" xmlns="http://www.w3.org/2000/svg">
<path d="M29 30.1621C27.9012 30.1621 26.8475 29.7236 26.0706 28.943C25.2936 28.1625 24.8571 27.1039 24.8571 26C24.8571 24.8961 25.2936 23.8375 26.0706 23.057C26.8475 22.2764 27.9012 21.8379 29 21.8379C30.0988 21.8379 31.1525 22.2764 31.9294 23.057C32.7064 23.8375 33.1429 24.8961 33.1429 26C33.1429 27.1039 32.7064 28.1625 31.9294 28.943C31.1525 29.7236 30.0988 30.1621 29 30.1621ZM27.5417 38.4696C28.025 39.0523 28.5111 39.6184 29 40.1594C29.4889 39.6184 29.975 39.0551 30.4583 38.4696C29.4862 38.4903 28.5138 38.4903 27.5417 38.4696ZM22.0317 38.1228C19.9107 37.901 17.8038 37.5601 15.7208 37.1017C15.5136 38.0728 15.3562 39.0162 15.2512 39.9208C14.7265 44.3132 15.4584 46.9825 16.5714 47.6262C17.6845 48.2727 20.3497 47.5735 23.8767 44.9236C24.603 44.377 25.335 43.7694 26.0696 43.1062C24.632 41.5221 23.284 39.8584 22.0317 38.1228ZM42.2792 37.1017C40.1968 37.5631 38.0897 37.904 35.9683 38.1228C34.716 39.8584 33.368 41.5221 31.9304 43.1062C32.665 43.7721 33.3969 44.377 34.1233 44.9236C37.6503 47.5735 40.3155 48.2727 41.4286 47.6262C42.5416 46.9825 43.2708 44.3132 42.7515 39.9208C42.6375 38.9744 42.4781 38.0338 42.2792 37.1017ZM46.284 36.0279C47.8776 43.3504 47.0408 49.1801 43.5 51.2334C39.9592 53.2867 34.5155 51.1002 29 46.0529C23.4845 51.1002 18.0408 53.2839 14.5 51.2306C10.9592 49.1773 10.1224 43.3504 11.7132 36.0251C4.6041 33.7526 0 30.1066 0 26C0 21.8934 4.6041 18.2502 11.7132 15.9721C10.1224 8.64963 10.9592 2.81993 14.5 0.766636C18.0408 -1.28666 23.4845 0.899822 29 5.94705C34.5155 0.899822 39.9592 -1.28389 43.5 0.769411C47.0408 2.82271 47.8776 8.64963 46.2868 15.9749C53.3959 18.2474 58 21.8934 58 26C58 30.1066 53.3959 33.7498 46.2868 36.0279H46.284ZM26.0669 8.89381C25.3645 8.25508 24.6337 7.64865 23.8767 7.07636C20.3497 4.4265 17.6845 3.72727 16.5714 4.37378C15.4584 5.01752 14.7292 7.6868 15.2485 12.0792C15.359 12.9865 15.5136 13.9272 15.718 14.8983C17.8019 14.4397 19.9098 14.0988 22.0317 13.8772C23.3436 12.0653 24.697 10.3977 26.0696 8.89381H26.0669ZM35.9683 13.8772C38.1833 14.1103 40.299 14.4571 42.2792 14.8983C42.4864 13.9272 42.6438 12.9838 42.7488 12.0792C43.2735 7.6868 42.5416 5.01752 41.4286 4.37378C40.3155 3.72727 37.6503 4.4265 34.1233 7.07636C33.3654 7.64858 32.6337 8.25502 31.9304 8.89381C33.303 10.3977 34.6564 12.0653 35.9683 13.8772ZM30.4583 13.5304C29.975 12.9477 29.4889 12.3816 29 11.8406C28.5111 12.3816 28.025 12.9449 27.5417 13.5304C28.5138 13.5097 29.4862 13.5097 30.4583 13.5304ZM18.9798 33.5029C18.4759 32.6679 17.9897 31.8224 17.5215 30.9668C17.2591 31.6799 17.0161 32.3819 16.7951 33.0783C17.505 33.2337 18.2369 33.3752 18.9798 33.5029ZM24.3158 34.1521C27.4343 34.3848 30.5657 34.3848 33.6842 34.1521C35.4441 31.5549 37.0098 28.83 38.3684 26C37.0098 23.17 35.4441 20.4451 33.6842 17.8479C30.5657 17.6152 27.4343 17.6152 24.3158 17.8479C22.5559 20.4451 20.9902 23.17 19.6316 26C20.9902 28.83 22.5559 31.5549 24.3158 34.1521ZM40.4785 21.0332C40.7409 20.3201 40.9839 19.6181 41.2049 18.9217C40.4808 18.7638 39.7533 18.6223 39.0229 18.4971C39.5259 19.3321 40.0112 20.1776 40.4785 21.0332ZM12.7876 19.9983C11.8486 20.3035 10.9592 20.6365 10.1251 20.9972C6.07895 22.7397 4.14286 24.7098 4.14286 26C4.14286 27.2902 6.07619 29.2603 10.1251 31.0028C10.9592 31.3635 11.8486 31.6965 12.7876 32.0017C13.4008 30.0594 14.1603 28.045 15.0662 26C14.1957 24.0437 13.435 22.04 12.7876 19.9983ZM16.7924 18.9217C17.0161 19.6154 17.2591 20.3201 17.5215 21.0305C17.9897 20.1758 18.476 19.3311 18.9798 18.4971C18.2341 18.6248 17.5022 18.7663 16.7924 18.9217ZM45.2124 32.0017C46.1514 31.6965 47.0408 31.3635 47.8749 31.0028C51.921 29.2603 53.8571 27.2902 53.8571 26C53.8571 24.7098 51.9238 22.7397 47.8749 20.9972C47.0028 20.624 46.1144 20.2907 45.2124 19.9983C44.5992 21.9406 43.8397 23.955 42.9338 26C43.8397 28.045 44.5992 30.0567 45.2124 32.0017ZM41.2076 33.0783C40.9793 32.3703 40.7362 31.6673 40.4785 30.9695C40.0103 31.8242 39.524 32.6689 39.0202 33.5029C39.7659 33.3752 40.4978 33.2337 41.2076 33.0783Z" fill="#00D8FF"/>
</svg>
