<svg width="62" height="37" viewBox="0 0 62 37" fill="none" xmlns="http://www.w3.org/2000/svg">
<path d="M31 0C22.723 0 17.577 4.10083 15.5 12.3333C18.6 8.2325 22.227 6.69083 26.35 7.70833C28.706 8.29417 30.411 9.99 32.271 11.8708C35.309 14.9542 38.75 18.5 46.5 18.5C54.777 18.5 59.923 14.3992 62 6.16667C58.9 10.2675 55.273 11.8092 51.15 10.7917C48.794 10.2058 47.12 8.51 45.229 6.62917C42.191 3.54583 38.75 0 31 0ZM15.5 18.5C7.223 18.5 2.077 22.6008 0 30.8333C3.1 26.7325 6.727 25.1908 10.85 26.2083C13.206 26.7942 14.88 28.49 16.771 30.3708C19.809 33.4542 23.25 37 31 37C39.277 37 44.423 32.8992 46.5 24.6667C43.4 28.7675 39.773 30.3092 35.65 29.2917C33.294 28.7058 31.62 27.01 29.729 25.1292C26.691 22.0458 23.25 18.5 15.5 18.5Z" fill="#44A8B3"/>
</svg>
