<svg width="52" height="52" viewBox="0 0 52 52" fill="none" xmlns="http://www.w3.org/2000/svg">
<g clip-path="url(#clip0_118_36)">
<path d="M2.4375 0C1.08767 0 0 1.08767 0 2.4375V49.5625C0 50.9123 1.08767 52 2.4375 52H49.5625C50.9123 52 52 50.9123 52 49.5625V2.4375C52 1.08767 50.9123 0 49.5625 0H2.4375ZM40.0573 21.125C41.3833 21.125 42.5577 21.2052 43.5825 21.3655C44.5491 21.5103 45.4976 21.7573 46.4122 22.1022V27.4278C45.9732 27.1242 45.5068 26.8624 45.019 26.6457C44.516 26.4193 43.9967 26.231 43.4655 26.0823C42.4593 25.8019 41.4204 25.6562 40.3758 25.649C39.7258 25.649 39.1343 25.7097 38.6013 25.8353C38.1263 25.9369 37.6706 26.114 37.2515 26.3597C36.8832 26.585 36.6015 26.8558 36.4 27.17C36.1973 27.4867 36.0919 27.8557 36.0967 28.2317C36.0967 28.6563 36.2115 29.0398 36.4347 29.3778C36.66 29.7158 36.9807 30.0365 37.3945 30.3398C37.8083 30.6432 38.311 30.9378 38.9025 31.2282C39.494 31.5207 40.1635 31.8218 40.9088 32.1295C41.9272 32.5563 42.8415 33.0113 43.6518 33.4902C44.4622 33.9712 45.1577 34.515 45.7383 35.1217C46.319 35.7262 46.761 36.4173 47.0687 37.1952C47.3763 37.973 47.5323 38.8765 47.5323 39.91C47.5323 41.3335 47.2615 42.5317 46.7242 43.498C46.1992 44.4511 45.4457 45.2588 44.5315 45.8488C43.5461 46.4737 42.4539 46.9115 41.3097 47.1402C40.0833 47.4002 38.7898 47.5302 37.4313 47.5302C36.0943 47.536 34.7596 47.4171 33.4447 47.1748C32.307 46.9781 31.2037 46.6183 30.1687 46.1067V40.4083C32.1269 42.0748 34.6109 42.9956 37.1822 43.0083C37.9037 43.0083 38.5342 42.9433 39.0715 42.8133C39.611 42.6833 40.0595 42.5013 40.4213 42.2717C40.781 42.0377 41.0497 41.7647 41.2295 41.4483C41.4283 41.08 41.5187 40.663 41.4903 40.2454C41.4619 39.8279 41.3159 39.4269 41.0692 39.0888C40.7472 38.6628 40.3535 38.2962 39.9057 38.0055C39.3503 37.6373 38.7654 37.3156 38.1572 37.0435C37.4362 36.7142 36.7088 36.3993 35.9753 36.0988C33.9863 35.269 32.5043 34.2528 31.5272 33.0547C30.5522 31.8565 30.0625 30.407 30.0625 28.7105C30.0625 27.3802 30.329 26.2383 30.862 25.2828C31.395 24.3273 32.1187 23.5408 33.0373 22.9233C34.009 22.2823 35.0877 21.8207 36.2223 21.5605C37.479 21.2642 38.7663 21.118 40.0573 21.125ZM7.3125 21.5323H28.0323V26.2253H20.5963V47.125H14.7095V26.2253H7.3125V21.5323Z" fill="#3178C6"/>
</g>
<defs>
<clipPath id="clip0_118_36">
<rect width="52" height="52" fill="white"/>
</clipPath>
</defs>
</svg>
